<svg width="25" height="24" viewBox="0 0 25 24" fill="none" xmlns="http://www.w3.org/2000/svg">
<g id="Group">
<path id="Vector" d="M12.5001 5C14.1168 5 15.6013 5.55353 16.7864 6.47406L20.4235 3.00409C18.3088 1.13995 15.5407 0 12.5001 0C7.89246 0 3.89673 2.59991 1.88586 6.40985L5.9303 9.60278C6.91003 6.91937 9.47754 5 12.5001 5Z" fill="#F44336"/>
<path id="Vector_2" d="M24.3961 13.5018C24.4586 13.0102 24.5 12.5087 24.5 12C24.5 11.1422 24.4063 10.3068 24.2352 9.5H12.5V14.5H18.9862C18.4615 15.8638 17.5272 17.0178 16.338 17.8195L20.3975 21.0243C22.5494 19.1354 24.022 16.4904 24.3961 13.5018Z" fill="#2196F3"/>
<path id="Vector_3" d="M5.5 12.0003C5.5 11.1569 5.65686 10.3519 5.93024 9.60309L1.8858 6.41016C1.00433 8.08032 0.5 9.98047 0.5 12.0003C0.5 13.9976 0.995056 15.8766 1.85822 17.5333L5.90778 14.3362C5.64844 13.6047 5.5 12.8207 5.5 12.0003Z" fill="#FFC107"/>
<path id="Vector_4" d="M12.5001 19C9.45453 19 6.87048 17.0515 5.90784 14.3359L1.85828 17.533C3.85931 21.3735 7.86987 24 12.5001 24C15.5278 24 18.2888 22.8752 20.3975 21.0243L16.3381 17.8195C15.2413 18.5589 13.9285 19 12.5001 19Z" fill="#00B060"/>
<path id="Vector_5" opacity="0.1" d="M12.5001 23.7513C8.96838 23.7513 5.79279 22.2942 3.54761 19.9727C5.74542 22.4391 8.93652 24.0013 12.5001 24.0013C16.0306 24.0013 19.1953 22.47 21.3882 20.0421C19.1497 22.326 15.9982 23.7513 12.5001 23.7513Z" fill="#222222"/>
<path id="Vector_6" opacity="0.1" d="M12.5 14.25V14.5H18.9862L19.0875 14.25H12.5Z" fill="#222222"/>
<path id="Vector_7" d="M24.4944 12.1455C24.4952 12.0963 24.5 12.0479 24.5 11.9985C24.5 11.9845 24.4978 11.971 24.4977 11.957C24.4971 12.02 24.4939 12.0823 24.4944 12.1455Z" fill="#E6E6E6"/>
<path id="Vector_8" opacity="0.2" d="M12.5 9.5V9.75H24.2856C24.2698 9.66748 24.2526 9.58191 24.2352 9.5H12.5Z" fill="white"/>
<path id="Vector_9" d="M24.2352 9.5H12.5V14.5H18.9862C17.9775 17.1216 15.4772 19 12.5 19C8.63403 19 5.5 15.866 5.5 12C5.5 8.13397 8.63403 5 12.5 5C13.9019 5 15.1939 5.43066 16.2885 6.14069C16.4561 6.24957 16.6289 6.35181 16.7863 6.47406L20.4235 3.00409L20.3414 2.94098C18.2369 1.11707 15.5035 0 12.5 0C5.87256 0 0.5 5.37256 0.5 12C0.5 18.6274 5.87256 24 12.5 24C18.6177 24 23.6555 19.4188 24.3961 13.5018C24.4586 13.0102 24.5 12.5087 24.5 12C24.5 11.1422 24.4063 10.3068 24.2352 9.5Z" fill="url(#paint0_linear_11032_2138)"/>
<path id="Vector_10" opacity="0.1" d="M16.2885 5.8905C15.1939 5.18048 13.9019 4.74982 12.5 4.74982C8.63403 4.74982 5.5 7.88379 5.5 11.7498C5.5 11.792 5.50057 11.825 5.5013 11.867C5.56874 8.05933 8.67621 4.99982 12.5 4.99982C13.9019 4.99982 15.1939 5.43048 16.2885 6.1405C16.4561 6.24939 16.6289 6.35162 16.7863 6.47388L20.4235 3.00391L16.7863 6.22388C16.6289 6.10162 16.4561 5.99939 16.2885 5.8905Z" fill="#222222"/>
<path id="Vector_11" opacity="0.2" d="M12.5 0.25C15.475 0.25 18.1829 1.34839 20.2793 3.1416L20.4235 3.00409L20.3134 2.90827C18.209 1.08436 15.5035 0 12.5 0C5.87256 0 0.5 5.37256 0.5 12C0.5 12.0422 0.505859 12.0829 0.506287 12.125C0.574036 5.55585 5.91473 0.25 12.5 0.25Z" fill="white"/>
</g>
<defs>
<linearGradient id="paint0_linear_11032_2138" x1="0.5" y1="12" x2="24.5" y2="12" gradientUnits="userSpaceOnUse">
<stop stop-color="white" stop-opacity="0.2"/>
<stop offset="1" stop-color="white" stop-opacity="0"/>
</linearGradient>
</defs>
</svg>
